Coordinates
version=1
nRows=4
nColumns=63
inDegrees=yes

Units are S.I. units (second, meters, Newtons, ...)
If the header above contains a line with 'inDegrees', this indicates whether rotational values are in degrees (yes) or radians (no).

endheader
time	pelvis_tilt	pelvis_list	pelvis_rotation	pelvis_tx	pelvis_ty	pelvis_tz	hip_flexion_r	hip_adduction_r	hip_rotation_r	knee_angle_r	knee_angle_r_beta	ankle_angle_r	subtalar_angle_r	mtp_angle_r	hip_flexion_l	hip_adduction_l	hip_rotation_l	knee_angle_l	knee_angle_l_beta	ankle_angle_l	subtalar_angle_l	mtp_angle_l	L5_S1_Flex_Ext	L5_S1_Lat_Bending	L5_S1_axial_rotation	L4_L5_Flex_Ext	L4_L5_Lat_Bending	L4_L5_axial_rotation	L3_L4_Flex_Ext	L3_L4_Lat_Bending	L3_L4_axial_rotation	L2_L3_Flex_Ext	L2_L3_Lat_Bending	L2_L3_axial_rotation	L1_L2_Flex_Ext	L1_L2_Lat_Bending	L1_L2_axial_rotation	L1_T12_Flex_Ext	L1_T12_Lat_Bending	L1_T12_axial_rotation	Abs_r3	Abs_r2	Abs_r1	Abs_t1	Abs_t2	neck_flexion	neck_bending	neck_rotation	arm_flex_r	arm_add_r	arm_rot_r	elbow_flex_r	pro_sup_r	wrist_flex_r	wrist_dev_r	arm_flex_l	arm_add_l	arm_rot_l	elbow_flex_l	pro_sup_l	wrist_flex_l	wrist_dev_l
      2.20000000	     -0.97537649	     -8.36003968	     96.92575864	      0.23697839	      0.86301834	      0.64619393	     -4.08149657	     -2.82143537	     18.01033392	      0.28710546	      0.00501094	     10.98840070	    -10.41028559	      0.00000000	      0.60915255	     -2.77611113	     26.63618363	      0.24268021	      0.00423557	      4.60464933	    -15.48892814	      0.00000000	      0.07906394	     -1.22316462	     -1.64100415	      0.14682965	     -1.62680895	     -1.74356691	      0.12989415	     -2.97400246	     -1.74356691	      0.09036218	     -2.97400246	     -1.43587863	      0.07341878	     -2.49427730	     -1.33331587	      0.04517714	     -1.89468200	     -1.23075311	      0.56474584	    -13.83668285	     -9.12677278	      0.00000000	      0.00000000	     28.23945059	     -2.74556818	    -40.95782775	    177.67681205	    -38.49703439	     43.83458611	     60.47801163	     75.40850689	     17.92538705	    -11.01869241	     -4.37953106	    -23.16617157	     55.56611534	      1.03234837	     24.16515543	    -16.83078628	    -10.02162866
      2.21666667	     -1.71351231	     -7.97781032	     96.49143944	      0.24057403	      0.86172505	      0.64620753	     -4.55838549	     -3.44467731	     19.37760416	      0.28665767	      0.00500312	     11.96006225	    -11.27196981	      0.00000000	      0.17063581	     -2.24267030	     26.74590058	      0.23747470	      0.00414472	      7.64255810	    -13.97234642	      0.00000000	      0.00687964	     -1.41863760	     -1.73853267	      0.01277618	     -1.88678801	     -1.84719096	      0.01130256	     -3.44927547	     -1.84719096	      0.00786274	     -3.44927547	     -1.52121609	      0.00638843	     -2.89288580	     -1.41255779	      0.00393103	     -2.19746965	     -1.30389950	      0.04914056	    -16.04791229	     -9.66919715	      0.00000000	      0.00000000	     28.22603270	     -0.89966402	    -42.87900242	    179.58187301	    -39.38025318	     47.06677524	     53.91098899	     77.00064037	     17.95456342	    -12.69338985	     -5.49087671	    -23.94704618	     51.41256967	      1.40679571	     31.29026712	    -15.08218888	     -5.99722457
      2.23333333	     -2.54571569	     -7.53050540	     95.96397408	      0.24424049	      0.86068650	      0.64625606	     -5.12039000	     -4.18669625	     20.70954419	      0.30099973	      0.00525344	     12.38657593	    -11.83524479	      0.00000000	     -0.36974547	     -1.60924170	     26.60283146	      0.23437832	      0.00409067	      9.33206406	    -12.66237598	      0.00000000	     -0.07826910	     -1.61330554	     -1.81315344	     -0.14535355	     -2.14569637	     -1.92647553	     -0.12858831	     -3.92259109	     -1.92647553	     -0.08945376	     -3.92259109	     -1.58650926	     -0.07268069	     -3.28985266	     -1.47318717	     -0.04472297	     -2.49901028	     -1.35986508	     -0.55906838	    -18.25003495	    -10.08421551	      0.00000000	      0.00000000	     28.18635436	      1.05110071	    -43.65745712	    181.63019947	    -39.83826026	     50.99285240	     46.22140560	     78.45109379	     17.81750445	    -13.05985289	     -6.88393484	    -24.58462274	     51.12956334	      1.91359267	     33.81187214	    -13.24524920	     -2.19314563
      2.25000000	     -3.23788695	     -7.08085797	     95.32524293	      0.24751731	      0.86007205	      0.64623228	     -5.67352374	     -4.84916683	     23.28962760	      0.33509485	      0.00584851	     11.53895414	    -13.98543953	      0.00000000	     -0.93783477	     -1.09170627	     25.87792162	      0.23542208	      0.00410889	      9.95794012	    -11.15095732	      0.00000000	     -0.16237916	     -1.77308368	     -1.82111874	     -0.30155433	     -2.35820129	     -1.93493867	     -0.26677272	     -4.31107565	     -1.93493867	     -0.18558314	     -4.31107565	     -1.59347890	     -0.15078528	     -3.61567223	     -1.47965898	     -0.09278345	     -2.74650661	     -1.36583906	     -1.15985808	    -20.05747716	    -10.12851612	      0.00000000	      0.00000000	     28.11185875	      2.61382485	    -43.95917183	    184.64904465	    -40.06715570	     59.05272729	     37.94450231	     77.19455327	     15.76800696	    -11.29764298	     -8.21080098	    -24.81666038	     45.90327387	      2.46339444	     41.56012956	    -11.82818840	      0.76859237
